<svg width="15" height="8" viewBox="0 0 15 8" fill="none" xmlns="http://www.w3.org/2000/svg">
<path d="M14.0013 6.13632C14.0018 5.98692 13.9688 5.83931 13.9048 5.70433C13.8407 5.56935 13.7473 5.45044 13.6313 5.35632L7.63125 0.526316C7.45232 0.379235 7.22788 0.298828 6.99625 0.298828C6.76463 0.298828 6.54018 0.379235 6.36125 0.526316L0.361252 5.52632C0.157035 5.69605 0.028611 5.93997 0.00423124 6.20439C-0.0201485 6.46882 0.0615134 6.7321 0.231252 6.93632C0.40099 7.14053 0.644902 7.26896 0.909328 7.29334C1.17375 7.31772 1.43704 7.23605 1.64125 7.06632L7.00125 2.59632L12.3613 6.91632C12.508 7.0386 12.6868 7.11628 12.8763 7.14016C13.0659 7.16404 13.2583 7.13312 13.4308 7.05106C13.6034 6.96901 13.7488 6.83925 13.8499 6.67714C13.9509 6.51503 14.0035 6.32735 14.0013 6.13632Z" fill="white" fill-opacity="0.2"/>
</svg>
