<svg width="15" height="8" viewBox="0 0 15 8" fill="none" xmlns="http://www.w3.org/2000/svg">
<path d="M14.0013 1.46134C14.0018 1.61073 13.9688 1.75834 13.9048 1.89332C13.8407 2.0283 13.7473 2.14722 13.6313 2.24134L7.63125 7.07134C7.45232 7.21842 7.22788 7.29883 6.99625 7.29883C6.76463 7.29883 6.54018 7.21842 6.36125 7.07134L0.361252 2.07134C0.157035 1.9016 0.028611 1.65769 0.00423124 1.39326C-0.0201485 1.12884 0.0615134 0.865557 0.231252 0.66134C0.40099 0.457124 0.644902 0.3287 0.909328 0.30432C1.17375 0.27994 1.43704 0.361601 1.64125 0.53134L7.00125 5.00134L12.3613 0.68134C12.508 0.559057 12.6868 0.48138 12.8763 0.4575C13.0659 0.433621 13.2583 0.464538 13.4308 0.546594C13.6034 0.62865 13.7488 0.758409 13.8499 0.92052C13.9509 1.08263 14.0035 1.27031 14.0013 1.46134Z" fill="white" fill-opacity="0.2"/>
</svg>
