<svg width="6" height="11" viewBox="0 0 6 11" fill="none" xmlns="http://www.w3.org/2000/svg">
<path d="M5.00446 0.499061C4.87639 0.49868 4.74984 0.523409 4.63412 0.57143C4.51841 0.619452 4.41646 0.689546 4.33577 0.776562L0.195025 5.27656C0.068932 5.41076 0 5.57909 0 5.75281C0 5.92653 0.068932 6.09486 0.195025 6.22906L4.48151 10.7291C4.62703 10.8822 4.83613 10.9785 5.06282 10.9968C5.28952 11.0151 5.51523 10.9539 5.6903 10.8266C5.86537 10.6993 5.97547 10.5163 5.99637 10.318C6.01727 10.1197 5.94726 9.92222 5.80175 9.76906L1.96963 5.74906L5.67315 1.72906C5.77799 1.61897 5.84458 1.48492 5.86505 1.34276C5.88552 1.20059 5.85902 1.05628 5.78867 0.92688C5.71833 0.797483 5.60708 0.688425 5.46811 0.612608C5.32913 0.53679 5.16823 0.497387 5.00446 0.499061Z" fill="white" fill-opacity="0.2"/>
</svg>
