<svg width="56" height="56" viewBox="0 0 56 56" fill="none" xmlns="http://www.w3.org/2000/svg">
<path d="M0 18.592C0 3.28149 3.28149 0 18.592 0H37.408C52.7185 0 56 3.28149 56 18.592V37.408C56 52.7185 52.7185 56 37.408 56H18.592C3.28149 56 0 52.7185 0 37.408V18.592Z" fill="#D9FFBB" fill-opacity="0.1"/>
<path d="M13 34.9557C13.0859 34.551 13.1445 34.1374 13.2617 33.7422C13.8555 31.7367 15.0946 30.2926 16.9564 29.4011C17.0603 29.3518 17.1642 29.3033 17.3025 29.2381C15.9571 28.318 15.2087 27.0616 15.1227 25.4393C15.0602 24.2727 15.4219 23.2302 16.1368 22.3141C17.5822 20.462 20.5916 19.7821 22.8143 21.7654C23.7573 19.3614 25.4878 17.9945 28.0387 18C30.5661 18.0056 32.2388 19.4131 33.188 21.7805C34.3341 20.8008 35.6443 20.3785 37.1288 20.6584C38.2889 20.8771 39.2233 21.491 39.9413 22.4477C41.3953 24.3856 41.2281 27.5657 38.7421 29.2421C38.8397 29.2882 38.9233 29.3272 39.0069 29.3669C41.2718 30.4588 42.593 32.2607 42.9484 34.7903C42.9562 34.8468 42.982 34.9001 43 34.9549C43 35.8496 43 36.7442 43 37.6396C42.8164 37.9553 42.5383 38.0436 42.1883 38.042C40.2359 38.0324 38.2827 38.0372 36.3303 38.0372C36.2154 38.0372 36.1006 38.0372 35.9943 38.0372C35.8529 38.6082 35.717 38.7179 35.174 38.7179C30.3997 38.7179 25.6253 38.7179 20.8518 38.7179C20.7643 38.7179 20.6752 38.7235 20.5885 38.7116C20.3377 38.6774 20.1267 38.5557 20.0705 38.298C20.0197 38.0674 19.9025 38.0332 19.7017 38.034C17.7493 38.0396 15.7962 38.0316 13.8438 38.0428C13.4844 38.0452 13.1961 37.9601 13 37.6396C13 36.7458 13 35.8512 13 34.9557ZM34.7748 37.5688C34.7748 36.7561 34.8068 35.9704 34.7693 35.1887C34.6349 32.4174 32.945 30.1558 30.4215 29.3144C29.4465 28.9892 28.4426 29.0003 27.4363 29.0043C24.7167 29.0146 22.3573 30.7586 21.4854 33.3828C21.0354 34.7386 21.1721 36.1327 21.1666 37.5195C21.1666 37.5346 21.1901 37.5489 21.2072 37.5688C25.723 37.5688 30.2419 37.5688 34.7748 37.5688ZM27.9746 19.1229C25.6167 19.1173 23.6964 21.0489 23.6792 23.4425C23.662 25.8282 25.6253 27.8409 27.9762 27.8464C30.3208 27.8528 32.2669 25.8767 32.2732 23.4831C32.2802 21.1069 30.3294 19.1276 27.9746 19.1229ZM41.8062 36.8698C42.0351 34.5112 41.4898 32.4675 39.5444 31.0297C37.8694 29.7916 36.0334 29.6222 34.0701 30.3721C34.8443 31.2882 35.3389 32.3124 35.6639 33.4305C35.9904 34.5533 35.9178 35.7088 35.9373 36.8706C37.9092 36.8698 39.8499 36.8698 41.8062 36.8698ZM21.8885 30.392C21.7924 30.3498 21.7244 30.3164 21.6533 30.2902C20.2728 29.7796 18.89 29.7757 17.5454 30.3768C14.7758 31.6158 13.8555 34.2082 14.161 36.8682C16.1071 36.8682 18.0548 36.8682 20.0588 36.8682C19.8681 34.4754 20.2814 32.2631 21.8885 30.392ZM19.7306 28.7522C21.2869 28.7554 22.6815 27.6612 23.0589 26.1256C23.0909 25.9944 23.0745 25.8282 23.0237 25.7017C22.7463 25.0139 22.5792 24.3006 22.5776 23.5602C22.5768 23.2469 22.4549 23.0362 22.2643 22.8294C21.1807 21.6517 19.4502 21.3757 18.0509 22.1582C16.654 22.9407 15.9571 24.5773 16.3563 26.1415C16.7501 27.6866 18.1236 28.749 19.7306 28.7522ZM36.2451 21.7391C35.1725 21.7558 34.2506 22.1765 33.5505 23.0592C33.4615 23.1713 33.4052 23.3399 33.4005 23.4847C33.3763 24.2878 33.2294 25.06 32.9216 25.8019C32.8833 25.8934 32.874 26.0151 32.8958 26.1121C33.2912 27.8878 35.0935 29.0782 36.8577 28.7355C38.5921 28.3983 39.8413 26.7737 39.6952 25.0441C39.5366 23.1618 38.1007 21.7718 36.2451 21.7391ZM25.1245 28.155C24.7605 27.8504 24.3519 27.5093 23.9308 27.157C23.5448 28.019 22.9464 28.6918 22.1838 29.2087C22.5854 29.5442 22.8964 29.4942 23.3034 29.1959C23.8714 28.7785 24.5292 28.4866 25.1245 28.155ZM33.8763 29.2365C33.0505 28.6775 32.4544 27.9999 32.0614 27.1482C31.6356 27.5093 31.2317 27.8512 30.8145 28.2051C31.6552 28.4969 32.4114 28.9176 33.1083 29.4512C33.1568 29.4886 33.2537 29.4957 33.3138 29.4751C33.4857 29.417 33.649 29.3359 33.8763 29.2365Z" fill="#FFC23E"/>
</svg>
