<svg width="17" height="18" viewBox="0 0 17 18" fill="none" xmlns="http://www.w3.org/2000/svg">
<path d="M0.292772 15.7175C-0.0977518 16.108 -0.0977521 16.7412 0.292772 17.1317C0.683296 17.5223 1.31646 17.5223 1.70699 17.1317L0.292772 15.7175ZM16.8491 1.57538C16.8491 1.02309 16.4014 0.575378 15.8491 0.575378L6.84912 0.575378C6.29684 0.575378 5.84912 1.02309 5.84912 1.57538C5.84912 2.12766 6.29684 2.57538 6.84912 2.57538L14.8491 2.57538L14.8491 10.5754C14.8491 11.1277 15.2968 11.5754 15.8491 11.5754C16.4014 11.5754 16.8491 11.1277 16.8491 10.5754L16.8491 1.57538ZM1.70699 17.1317L16.5562 2.28249L15.142 0.868272L0.292772 15.7175L1.70699 17.1317Z" fill="black"/>
</svg>
