<svg width="17" height="16" viewBox="0 0 17 16" fill="none" xmlns="http://www.w3.org/2000/svg">
<path fill-rule="evenodd" clip-rule="evenodd" d="M4.95182 0.048C5.80491 0.00872726 6.07691 0 8.25 0C10.4231 0 10.6951 0.00945454 11.5475 0.048C12.3998 0.0865454 12.9816 0.222545 13.4907 0.419636C14.0238 0.621091 14.5075 0.936 14.9075 1.34327C15.3147 1.74255 15.6289 2.22545 15.8296 2.75927C16.0275 3.26836 16.1627 3.85018 16.202 4.70109C16.2413 5.55564 16.25 5.82764 16.25 8C16.25 10.1731 16.2405 10.4451 16.202 11.2982C16.1635 12.1491 16.0275 12.7309 15.8296 13.24C15.6289 13.7739 15.3142 14.2576 14.9075 14.6575C14.5075 15.0647 14.0238 15.3789 13.4907 15.5796C12.9816 15.7775 12.3998 15.9127 11.5489 15.952C10.6951 15.9913 10.4231 16 8.25 16C6.07691 16 5.80491 15.9905 4.95182 15.952C4.10091 15.9135 3.51909 15.7775 3.01 15.5796C2.47612 15.3789 1.99241 15.0642 1.59255 14.6575C1.18555 14.2579 0.870593 13.7745 0.669636 13.2407C0.472545 12.7316 0.337273 12.1498 0.298 11.2989C0.258727 10.4444 0.25 10.1724 0.25 8C0.25 5.82691 0.259455 5.55491 0.298 4.70255C0.336545 3.85018 0.472545 3.26836 0.669636 2.75927C0.870889 2.22551 1.18609 1.74205 1.59327 1.34255C1.99257 0.935637 2.4758 0.620686 3.00927 0.419636C3.51836 0.222545 4.10018 0.0872727 4.95109 0.048H4.95182ZM11.4827 1.488C10.6391 1.44945 10.386 1.44145 8.25 1.44145C6.114 1.44145 5.86091 1.44945 5.01727 1.488C4.23691 1.52364 3.81364 1.65382 3.53145 1.76364C3.15836 1.90909 2.89145 2.08145 2.61145 2.36145C2.34603 2.61967 2.14177 2.93402 2.01364 3.28145C1.90382 3.56364 1.77364 3.98691 1.738 4.76727C1.69945 5.61091 1.69145 5.864 1.69145 8C1.69145 10.136 1.69945 10.3891 1.738 11.2327C1.77364 12.0131 1.90382 12.4364 2.01364 12.7185C2.14164 13.0655 2.346 13.3804 2.61145 13.6385C2.86964 13.904 3.18455 14.1084 3.53145 14.2364C3.81364 14.3462 4.23691 14.4764 5.01727 14.512C5.86091 14.5505 6.11327 14.5585 8.25 14.5585C10.3867 14.5585 10.6391 14.5505 11.4827 14.512C12.2631 14.4764 12.6864 14.3462 12.9685 14.2364C13.3416 14.0909 13.6085 13.9185 13.8885 13.6385C14.154 13.3804 14.3584 13.0655 14.4864 12.7185C14.5962 12.4364 14.7264 12.0131 14.762 11.2327C14.8005 10.3891 14.8085 10.136 14.8085 8C14.8085 5.864 14.8005 5.61091 14.762 4.76727C14.7264 3.98691 14.5962 3.56364 14.4864 3.28145C14.3409 2.90836 14.1685 2.64145 13.8885 2.36145C13.6303 2.09605 13.316 1.89179 12.9685 1.76364C12.6864 1.65382 12.2631 1.52364 11.4827 1.488ZM7.22818 10.4662C7.79884 10.7037 8.43428 10.7358 9.02595 10.5569C9.61762 10.378 10.1288 9.99921 10.4723 9.48527C10.8157 8.97132 10.97 8.35409 10.9089 7.73899C10.8478 7.12388 10.5751 6.54907 10.1373 6.11273C9.85817 5.8338 9.5207 5.62023 9.14915 5.48738C8.7776 5.35453 8.38122 5.30572 7.98854 5.34445C7.59586 5.38318 7.21666 5.50849 6.87822 5.71137C6.53979 5.91424 6.25054 6.18963 6.03131 6.51771C5.81208 6.84579 5.66832 7.21839 5.61038 7.6087C5.55243 7.99901 5.58175 8.3973 5.69621 8.77492C5.81068 9.15254 6.00744 9.50008 6.27234 9.79253C6.53724 10.085 6.86369 10.315 7.22818 10.4662ZM5.34236 5.09236C5.7242 4.71053 6.17751 4.40764 6.6764 4.20099C7.17529 3.99434 7.71 3.88798 8.25 3.88798C8.79 3.88798 9.32471 3.99434 9.8236 4.20099C10.3225 4.40764 10.7758 4.71053 11.1576 5.09236C11.5395 5.4742 11.8424 5.92751 12.049 6.4264C12.2557 6.92529 12.362 7.46 12.362 8C12.362 8.54 12.2557 9.07471 12.049 9.5736C11.8424 10.0725 11.5395 10.5258 11.1576 10.9076C10.3865 11.6788 9.34058 12.112 8.25 12.112C7.15942 12.112 6.11352 11.6788 5.34236 10.9076C4.57121 10.1365 4.13798 9.09058 4.13798 8C4.13798 6.90942 4.57121 5.86352 5.34236 5.09236ZM13.274 4.50036C13.3686 4.41111 13.4444 4.30377 13.4968 4.18471C13.5492 4.06565 13.5771 3.93729 13.579 3.80722C13.5809 3.67716 13.5567 3.54803 13.5078 3.4275C13.4589 3.30696 13.3863 3.19746 13.2943 3.10548C13.2024 3.0135 13.0929 2.94091 12.9723 2.89201C12.8518 2.84311 12.7227 2.81889 12.5926 2.82079C12.4625 2.82268 12.3342 2.85066 12.2151 2.90305C12.0961 2.95545 11.9887 3.0312 11.8995 3.12582C11.7259 3.30984 11.6308 3.55427 11.6345 3.80722C11.6382 4.06017 11.7403 4.30173 11.9192 4.48061C12.0981 4.6595 12.3396 4.76162 12.5926 4.76531C12.8455 4.769 13.09 4.67396 13.274 4.50036Z" fill="#111111"/>
</svg>
