<svg width="16" height="16" viewBox="0 0 16 16" fill="none" xmlns="http://www.w3.org/2000/svg">
<path d="M7.99916 10.2854C9.41932 10.2854 10.5706 9.13417 10.5706 7.71401C10.5706 6.29385 9.41932 5.14258 7.99916 5.14258C6.579 5.14258 5.42773 6.29385 5.42773 7.71401C5.42773 9.13417 6.579 10.2854 7.99916 10.2854Z" stroke="black" stroke-width="1.14286" stroke-linecap="round" stroke-linejoin="round"/>
<path d="M12.5706 15.4294C12.1379 14.5899 11.4825 13.8858 10.6761 13.3942C9.86973 12.9026 8.94357 12.6426 7.99916 12.6426C7.05476 12.6426 6.12859 12.9026 5.32222 13.3942C4.51584 13.8858 3.86039 14.5899 3.42773 15.4294" stroke="black" stroke-width="1.14286" stroke-linecap="round" stroke-linejoin="round"/>
<path d="M13.7138 12.0689C14.5248 11.0111 15.0236 9.74746 15.1539 8.4209C15.2841 7.09433 15.0406 5.75779 14.4508 4.56243C13.861 3.36707 12.9485 2.36059 11.8165 1.65682C10.6845 0.953054 9.37815 0.580078 8.0452 0.580078C6.71226 0.580078 5.40591 0.953054 4.27391 1.65682C3.1419 2.36059 2.2294 3.36707 1.63961 4.56243C1.04982 5.75779 0.806282 7.09433 0.93653 8.4209C1.06678 9.74746 1.56562 11.0111 2.37663 12.0689" stroke="black" stroke-width="1.14286" stroke-linecap="round" stroke-linejoin="round"/>
</svg>
