<svg width="218" height="87" viewBox="0 0 218 87" fill="none" xmlns="http://www.w3.org/2000/svg">
<path d="M21.7066 64.6031C11.5076 79.2405 5.65261 85.2607 4 86.4411H214V6.1716C195.231 -7.99361 172.212 51.6186 157.693 55.7498C143.174 59.8811 128.654 25.0588 118.03 26.8294C107.406 28.6001 98.199 62.2425 82.9713 73.4566C67.7437 84.6707 54.9949 61.0618 48.6206 55.7498C42.2462 50.4379 34.4553 46.3063 21.7066 64.6031Z" fill="url(#paint0_linear_205_56)"/>
<path d="M4 82.5615C5.65261 81.4366 11.5076 75.6997 21.7066 61.7512C34.4553 44.3155 42.2462 48.2525 48.6206 53.3145C54.9949 58.3765 67.7437 80.8744 82.9713 70.188C98.199 59.5016 107.406 27.4424 118.03 25.7551C128.654 24.0678 143.174 57.2514 157.693 53.3145C172.212 49.3777 195.231 -7.4292 214 6.06941" stroke="#FFC23E" stroke-opacity="0.9" stroke-width="7" stroke-linecap="round" stroke-linejoin="round"/>
<defs>
<linearGradient id="paint0_linear_205_56" x1="109" y1="-36.5" x2="109" y2="86.4411" gradientUnits="userSpaceOnUse">
<stop stop-color="#FFC23E" stop-opacity="0.8"/>
<stop offset="1" stop-color="#FFC23E" stop-opacity="0"/>
</linearGradient>
</defs>
</svg>
