<svg width="36" height="36" viewBox="0 0 36 36" fill="none" xmlns="http://www.w3.org/2000/svg">
<path d="M17.9997 0C8.07431 0 0 8.07463 0 17.9997C0 27.9251 8.07431 36 17.9997 36C27.9244 36 35.9994 27.9251 35.9994 17.9997C35.9994 8.07463 27.9244 0 17.9997 0ZM23.0869 11.3628C23.0869 11.4481 23.053 11.5298 22.9928 11.5901C22.9325 11.6503 22.8508 11.6842 22.7655 11.6842L20.7194 11.6855C19.3693 11.6855 19.1225 12.2112 19.1225 13.2467V15.3947H22.6318C22.7241 15.3947 22.8121 15.4345 22.8729 15.504C22.9336 15.5734 22.9619 15.6656 22.9506 15.7572L22.4509 19.6242C22.4409 19.7017 22.403 19.7728 22.3444 19.8244C22.2857 19.876 22.2102 19.9044 22.1321 19.9044H19.1225V29.5065C19.1225 29.5917 19.0887 29.6735 19.0284 29.7337C18.9681 29.794 18.8864 29.8279 18.8012 29.8279H14.8085C14.7233 29.8279 14.6415 29.794 14.5813 29.7337C14.521 29.6735 14.4872 29.5917 14.4872 29.5065V19.9044H11.4679C11.3827 19.9044 11.301 19.8706 11.2407 19.8103C11.1804 19.75 11.1466 19.6683 11.1466 19.583V15.7161C11.1466 15.6308 11.1804 15.5491 11.2407 15.4888C11.301 15.4285 11.3827 15.3947 11.4679 15.3947H14.4872V12.8639C14.4872 9.5121 16.5156 7.43029 19.7816 7.43029C21.1857 7.43029 22.4265 7.53473 22.8076 7.58519C22.8849 7.5954 22.9558 7.63332 23.0072 7.69191C23.0585 7.75049 23.0869 7.82574 23.0869 7.90366V11.3628Z" fill="#FFC23E"/>
</svg>
