<svg width="37" height="37" viewBox="0 0 37 37" fill="none" xmlns="http://www.w3.org/2000/svg">
<path d="M17.5472 0.990135C17.8431 0.0616097 19.1569 0.0616088 19.4528 0.990134L23.1051 12.4522C23.2373 12.867 23.6226 13.1486 24.0579 13.1486H35.918C36.882 13.1486 37.2879 14.3782 36.5133 14.9521L26.885 22.0852C26.5413 22.3398 26.3976 22.7848 26.5275 23.1923L30.1972 34.709C30.4919 35.6337 29.429 36.3938 28.6491 35.8161L19.0953 28.7382C18.7417 28.4762 18.2583 28.4762 17.9047 28.7382L8.35088 35.8161C7.57101 36.3938 6.50813 35.6337 6.8028 34.709L10.4725 23.1923C10.6024 22.7848 10.4587 22.3398 10.115 22.0852L0.486693 14.9521C-0.287895 14.3782 0.117976 13.1486 1.08197 13.1486H12.9421C13.3774 13.1486 13.7627 12.867 13.8949 12.4522L17.5472 0.990135Z" fill="#FFC23E"/>
</svg>
