<svg width="36" height="26" viewBox="0 0 36 26" fill="none" xmlns="http://www.w3.org/2000/svg">
<path d="M35.231 9.16322C35.3101 6.7574 34.8091 4.36959 33.7743 2.22149C33.0722 1.34008 32.0978 0.745258 31.021 0.540687C26.5669 0.116326 22.0943 -0.0576055 17.6225 0.0196373C13.167 -0.0611114 8.71061 0.107208 4.27215 0.523879C3.39464 0.691483 2.58257 1.12366 1.93503 1.76767C0.494342 3.16274 0.334266 5.54949 0.174189 7.56645C-0.058063 11.1929 -0.058063 14.8316 0.174189 18.4581C0.220499 19.5933 0.381478 20.7201 0.654419 21.8197C0.847431 22.6686 1.23793 23.454 1.79096 24.1056C2.4429 24.7837 3.27389 25.2405 4.17611 25.4166C7.62722 25.8639 11.1046 26.0493 14.5811 25.9713C20.1838 26.0553 25.0981 25.9713 30.9089 25.5006C31.8333 25.3353 32.6877 24.878 33.3581 24.1896C33.8062 23.7188 34.141 23.1426 34.3346 22.5088C34.907 20.6643 35.1882 18.7339 35.167 16.7941C35.231 15.8528 35.231 10.1717 35.231 9.16322ZM14.0048 17.8026L14.0048 7.39837L23.4814 12.6257C20.8241 14.172 17.3184 15.9201 14.0048 17.8026Z" fill="#FFC23E"/>
</svg>
