<svg width="21" height="17" viewBox="0 0 21 17" fill="none" xmlns="http://www.w3.org/2000/svg">
<path d="M20.2458 1.95228C19.5013 2.28219 18.7014 2.5051 17.8606 2.60586C18.7282 2.08674 19.3773 1.26969 19.6867 0.30719C18.8716 0.791346 17.9795 1.13214 17.0492 1.31475C16.4236 0.646788 15.595 0.204049 14.692 0.0552755C13.789 -0.0934981 12.8621 0.0600168 12.0553 0.491986C11.2485 0.923956 10.6069 1.61021 10.23 2.44421C9.8532 3.2782 9.76225 4.21328 9.97131 5.10426C8.3197 5.02133 6.70398 4.59205 5.22901 3.84428C3.75404 3.0965 2.45278 2.04694 1.4097 0.763714C1.05304 1.37895 0.847958 2.09227 0.847958 2.85196C0.84756 3.53585 1.01597 4.20926 1.33826 4.81245C1.66054 5.41564 2.12673 5.92996 2.69545 6.30977C2.03588 6.28878 1.39086 6.11056 0.814076 5.78994V5.84344C0.814009 6.80262 1.1458 7.73229 1.75314 8.47469C2.36049 9.21709 3.20599 9.72651 4.14617 9.91649C3.5343 10.0821 2.89281 10.1065 2.27014 9.98782C2.5354 10.8131 3.05211 11.5349 3.74793 12.0519C4.44375 12.569 5.28384 12.8555 6.15059 12.8714C4.67922 14.0265 2.86209 14.653 0.991514 14.6503C0.66016 14.6503 0.329086 14.631 0 14.5923C1.89875 15.8131 4.10902 16.461 6.36637 16.4585C14.0078 16.4585 18.1852 10.1296 18.1852 4.6406C18.1852 4.46227 18.1807 4.28216 18.1727 4.10383C18.9853 3.51621 19.6866 2.78856 20.244 1.95496L20.2458 1.95228Z" fill="#111111"/>
</svg>
