<svg width="25" height="17" viewBox="0 0 25 17" fill="none" xmlns="http://www.w3.org/2000/svg">
<path d="M23.7467 2.51196C23.6108 2.02719 23.3461 1.5883 22.9807 1.24196C22.605 0.884962 22.1445 0.629595 21.6427 0.499959C19.7647 0.00495878 12.2407 0.00495889 12.2407 0.00495889C9.10404 -0.0307285 5.96814 0.126233 2.85071 0.474959C2.3489 0.614172 1.88927 0.875246 1.51271 1.23496C1.14271 1.59096 0.874711 2.02996 0.734711 2.51096C0.398404 4.3227 0.235003 6.1623 0.246711 8.00496C0.234711 9.84596 0.397711 11.685 0.734711 13.499C0.871711 13.978 1.13871 14.415 1.50971 14.768C1.88071 15.121 2.34271 15.376 2.85071 15.511C4.75371 16.005 12.2407 16.005 12.2407 16.005C15.3814 16.0407 18.5213 15.8837 21.6427 15.535C22.1445 15.4053 22.605 15.15 22.9807 14.793C23.3507 14.44 23.6137 14.001 23.7457 13.523C24.0908 11.7119 24.2586 9.87155 24.2467 8.02796C24.2727 6.17656 24.1051 4.32752 23.7467 2.51096V2.51196ZM9.84871 11.429V4.58196L16.1087 8.00596L9.84871 11.429Z" fill="#111111"/>
</svg>
