<svg width="163" height="41" viewBox="0 0 163 41" fill="none" xmlns="http://www.w3.org/2000/svg">
<path d="M19.0218 1.7486C15.2596 1.7486 11.582 2.8642 8.45385 4.95434C5.32574 7.04447 2.88766 10.0153 1.44795 13.491C0.00824119 16.9668 -0.368452 20.7914 0.365506 24.4813C1.09946 28.1711 2.91112 31.5605 5.57135 34.2207C8.23159 36.881 11.6209 38.6926 15.3108 39.4266C19.0007 40.1605 22.8253 39.7839 26.3011 38.3441C29.7768 36.9044 32.7476 34.4664 34.8378 31.3382C36.9279 28.2101 38.0435 24.5325 38.0435 20.7703C38.0429 15.7256 36.0387 10.8877 32.4715 7.32057C28.9044 3.75343 24.0665 1.74917 19.0218 1.7486ZM29.5152 16.4486H26.1587V27.6573C26.1409 28.0739 26.1999 28.4903 26.3326 28.8856C26.4171 29.124 26.5616 29.3366 26.7522 29.5029C26.9064 29.63 27.0932 29.7114 27.2913 29.7377C27.5141 29.7655 27.7385 29.7793 27.9631 29.779C28.2609 29.779 28.5131 29.779 28.7348 29.766C28.8818 29.7678 29.0283 29.748 29.1696 29.7073L29.4326 29.6008V30.6356L29.2609 30.653L28.7565 30.7116C28.5848 30.7312 28.2783 30.7421 27.8217 30.7421C27.1507 30.7579 26.4964 30.5319 25.9783 30.1051C25.4609 29.6703 25.2 28.8877 25.2 27.7725V16.4486H19.1848V27.6573C19.167 28.0739 19.226 28.4903 19.3587 28.8856C19.4451 29.123 19.5893 29.3352 19.7783 29.5029C19.9331 29.6304 20.1207 29.7118 20.3196 29.7377C20.5417 29.7656 20.7653 29.7794 20.9891 29.779C21.287 29.779 21.5391 29.779 21.7631 29.766C21.9101 29.7679 22.0566 29.7481 22.1978 29.7073L22.4609 29.6008V30.6356L22.2913 30.653L21.7848 30.7116C21.6131 30.7312 21.3087 30.7421 20.8522 30.7421C20.1805 30.7581 19.5254 30.532 19.0065 30.1051C18.4913 29.6703 18.2283 28.8877 18.2283 27.7725V16.4486H12.2131V27.6573C12.1953 28.0739 12.2542 28.4903 12.387 28.8856C12.4714 29.124 12.616 29.3366 12.8065 29.5029C12.9605 29.6304 13.1474 29.7118 13.3457 29.7377C13.5685 29.7656 13.7928 29.7794 14.0174 29.779C14.3152 29.779 14.5674 29.779 14.7892 29.766C14.9362 29.7684 15.0828 29.7486 15.2239 29.7073L15.4891 29.6008V30.6356L15.3174 30.653L14.8131 30.7116C14.6413 30.7312 14.3348 30.7421 13.8783 30.7421C13.2066 30.7577 12.5517 30.5317 12.0326 30.1051C11.5174 29.6703 11.2565 28.8877 11.2565 27.7725V16.4486H8.53045V15.4856H11.25V10.7986H12.2131V15.4856H18.2218V10.7986H19.1848V15.4856H25.1957V10.7986H26.1587V15.4856H29.5152V16.4486Z" fill="black"/>
<path fill-rule="evenodd" clip-rule="evenodd" d="M47.5544 0.770325C48.0947 0.770325 48.5327 1.20831 48.5327 1.74859V39.7921C48.5327 40.3323 48.0947 40.7703 47.5544 40.7703C47.0142 40.7703 46.5762 40.3323 46.5762 39.7921V1.74859C46.5762 1.20831 47.0142 0.770325 47.5544 0.770325Z" fill="#FFC23E"/>
<path d="M65.0241 23.9595H60.6763L59.7306 26.9638H57.0654L61.3654 14.5725H64.4089L68.7176 26.9638H65.9676L65.0241 23.9595ZM61.2285 22.0203H64.472L62.8828 16.9464H62.8241L61.2285 22.0203Z" fill="black"/>
<path d="M72.4458 20.7704C72.4458 16.7791 74.7219 14.366 78.3154 14.366C81.2936 14.366 83.561 16.2552 83.7501 19.0269H81.2284C81.1397 18.3207 80.7919 17.6726 80.2525 17.2082C79.713 16.7439 79.0204 16.4964 78.3089 16.5138C76.3523 16.5138 75.0893 18.153 75.0893 20.7617C75.0893 23.4052 76.3349 25.0356 78.3175 25.0356C79.8545 25.0356 80.961 24.1356 81.2371 22.6682H83.7588C83.4675 25.4312 81.348 27.1834 78.3089 27.1834C74.7045 27.1791 72.4458 24.766 72.4458 20.7704Z" fill="black"/>
<path d="M95.5585 23.9595H91.2107L90.2672 26.9638H87.5977L91.8976 14.5725H94.9411L99.2498 26.9638H96.4933L95.5585 23.9595ZM91.765 22.0203H94.9998L93.4129 16.9464H93.352L91.765 22.0203Z" fill="black"/>
<path d="M108.661 14.5769C112.378 14.5769 114.567 16.7921 114.567 20.7225C114.567 24.653 112.378 26.9638 108.661 26.9638H103.933V14.5725L108.661 14.5769ZM106.524 24.8182H108.352C110.67 24.8182 111.924 23.4095 111.924 20.7312C111.924 18.1399 110.635 16.7138 108.352 16.7138H106.524V24.8182Z" fill="black"/>
<path d="M127.967 26.9638H119.761V14.5725H127.967V16.7095H122.352V19.6964H127.65V21.6877H122.352V24.8138H127.967V26.9638Z" fill="black"/>
<path d="M144.211 26.9638V18.5964H144.141L140.776 26.8442H139.146L135.776 18.5964H135.709V26.9573H133.4V14.566H136.404L139.924 23.3464H139.991L143.511 14.566H146.515V26.9573L144.211 26.9638Z" fill="black"/>
<path d="M155.511 26.9639V22.3378L151.211 14.5769H154.037L156.809 19.8639H156.87L159.65 14.5769H162.433L158.115 22.3378V26.9639H155.511Z" fill="black"/>
</svg>
