<svg width="7" height="11" viewBox="0 0 7 11" fill="none" xmlns="http://www.w3.org/2000/svg">
<path d="M1.99426 10.5009C2.12233 10.5013 2.24888 10.4766 2.36459 10.4286C2.48031 10.3805 2.58226 10.3105 2.66295 10.2234L6.80369 5.72344C6.92979 5.58924 6.99872 5.42091 6.99872 5.24719C6.99872 5.07347 6.92979 4.90514 6.80369 4.77094L2.51721 0.270939C2.37169 0.117776 2.16259 0.021458 1.93589 0.00317318C1.7092 -0.0151116 1.48349 0.0461348 1.30842 0.173439C1.13334 0.300743 1.02325 0.483676 1.00235 0.681996C0.981445 0.880316 1.05145 1.07778 1.19697 1.23094L5.02909 5.25094L1.32556 9.27094C1.22073 9.38103 1.15414 9.51508 1.13367 9.65724C1.1132 9.79941 1.1397 9.94372 1.21005 10.0731C1.28039 10.2025 1.39164 10.3116 1.53061 10.3874C1.66959 10.4632 1.83048 10.5026 1.99426 10.5009Z" fill="white" fill-opacity="0.2"/>
</svg>
