<svg width="56" height="56" viewBox="0 0 56 56" fill="none" xmlns="http://www.w3.org/2000/svg">
<path d="M0 18.592C0 3.28149 3.28149 0 18.592 0H37.408C52.7185 0 56 3.28149 56 18.592V37.408C56 52.7185 52.7185 56 37.408 56H18.592C3.28149 56 0 52.7185 0 37.408V18.592Z" fill="#B4EDFF" fill-opacity="0.1"/>
<path d="M38.6122 29.121C38.6122 35.2932 33.7942 40.2498 27.9077 40.2498C22.0212 40.2498 17.2031 35.2932 17.2031 29.121C17.2031 22.9488 22.0212 17.9922 27.9077 17.9922C33.7942 17.9922 38.6122 22.9488 38.6122 29.121Z" stroke="#FFC23E" stroke-width="1.5"/>
<ellipse cx="37.7275" cy="34.212" rx="4.90909" ry="5.09091" fill="#FFC23E"/>
<ellipse cx="27.9091" cy="18.0909" rx="4.90909" ry="5.09091" fill="#FFC23E"/>
<ellipse cx="18.9091" cy="34.212" rx="4.90909" ry="5.09091" fill="#FFC23E"/>
<ellipse cx="18.9094" cy="34.2123" rx="3.27273" ry="3.39394" fill="#212729"/>
<ellipse cx="27.9094" cy="18.0912" rx="3.27273" ry="3.39394" fill="#212729"/>
<ellipse cx="37.7259" cy="34.2123" rx="3.27273" ry="3.39394" fill="#212729"/>
</svg>
