<svg width="56" height="56" viewBox="0 0 56 56" fill="none" xmlns="http://www.w3.org/2000/svg">
<path d="M0 18.592C0 3.28149 3.28149 0 18.592 0H37.408C52.7185 0 56 3.28149 56 18.592V37.408C56 52.7185 52.7185 56 37.408 56H18.592C3.28149 56 0 52.7185 0 37.408V18.592Z" fill="#FFE4BF" fill-opacity="0.1"/>
<path d="M25.5917 39.0011C26.1239 38.4917 26.5487 37.8732 26.8392 37.1847C27.1298 36.4963 27.2798 35.7528 27.2798 35.0011C27.2798 34.2494 27.1298 33.5059 26.8392 32.8175C26.5487 32.129 26.1239 31.5105 25.5917 31.0011C25.1011 30.4484 24.5055 30.0073 23.8426 29.7055C23.1796 29.4038 22.4636 29.248 21.7398 29.248C21.016 29.248 20.3 29.4038 19.637 29.7055C18.9741 30.0073 18.3785 30.4484 17.888 31.0011C15.962 33.0011 15.962 41.0011 15.962 41.0011C15.962 41.0011 23.6657 41.0011 25.5917 39.0011Z" stroke="#FFC23E" stroke-width="1.5" stroke-linecap="round" stroke-linejoin="round"/>
<path d="M39.8834 16.1604C39.2162 15.4764 38.3317 15.0685 37.3957 15.0133C36.4597 14.9581 35.5364 15.2592 34.7989 15.8604L23.6671 24.0004L22.2997 29.2804C23.5546 29.4455 24.7171 30.0526 25.593 31.0004C26.5057 31.91 27.0903 33.1171 27.2493 34.4204L32.3338 33.0004L40.1723 21.4404C40.7511 20.6745 41.0412 19.7157 40.988 18.7437C40.9348 17.7717 40.5421 16.8532 39.8834 16.1604V16.1604Z" stroke="#FFC23E" stroke-width="1.5" stroke-linecap="round" stroke-linejoin="round"/>
<path d="M15.962 41L22.2213 34.5" stroke="#FFC23E" stroke-width="1.5" stroke-linecap="round" stroke-linejoin="round"/>
</svg>
