<svg width="16" height="17" viewBox="0 0 16 17" fill="none" xmlns="http://www.w3.org/2000/svg">
<g clip-path="url(#clip0_1193_3)">
<path d="M7.99916 10.7854C9.41932 10.7854 10.5706 9.63417 10.5706 8.21401C10.5706 6.79385 9.41932 5.64258 7.99916 5.64258C6.579 5.64258 5.42773 6.79385 5.42773 8.21401C5.42773 9.63417 6.579 10.7854 7.99916 10.7854Z" stroke="white" stroke-width="1.14286" stroke-linecap="round" stroke-linejoin="round"/>
<path d="M12.5706 15.9294C12.1379 15.0899 11.4825 14.3858 10.6761 13.8942C9.86973 13.4026 8.94357 13.1426 7.99916 13.1426C7.05476 13.1426 6.12859 13.4026 5.32222 13.8942C4.51584 14.3858 3.86039 15.0899 3.42773 15.9294" stroke="white" stroke-width="1.14286" stroke-linecap="round" stroke-linejoin="round"/>
<path d="M13.7138 12.5689C14.5248 11.5111 15.0236 10.2475 15.1539 8.9209C15.2841 7.59433 15.0406 6.25779 14.4508 5.06243C13.861 3.86707 12.9485 2.86059 11.8165 2.15682C10.6845 1.45305 9.37815 1.08008 8.0452 1.08008C6.71226 1.08008 5.40591 1.45305 4.27391 2.15682C3.1419 2.86059 2.2294 3.86707 1.63961 5.06243C1.04982 6.25779 0.806282 7.59433 0.93653 8.9209C1.06678 10.2475 1.56562 11.5111 2.37663 12.5689" stroke="white" stroke-width="1.14286" stroke-linecap="round" stroke-linejoin="round"/>
</g>
<defs>
<clipPath id="clip0_1193_3">
<rect width="16" height="16" fill="white" transform="translate(0 0.5)"/>
</clipPath>
</defs>
</svg>
