<svg width="24" height="20" viewBox="0 0 24 20" fill="none" xmlns="http://www.w3.org/2000/svg">
<path d="M2.08337 19.3337C1.61671 19.3337 1.20837 19.1587 0.858374 18.8087C0.508374 18.4587 0.333374 18.0503 0.333374 17.5837V2.41699C0.333374 1.95033 0.508374 1.54199 0.858374 1.19199C1.20837 0.841992 1.61671 0.666992 2.08337 0.666992H21.9167C22.3834 0.666992 22.7917 0.841992 23.1417 1.19199C23.4917 1.54199 23.6667 1.95033 23.6667 2.41699V17.5837C23.6667 18.0503 23.4917 18.4587 23.1417 18.8087C22.7917 19.1587 22.3834 19.3337 21.9167 19.3337H2.08337ZM12 10.3503C12.0973 10.3503 12.1799 10.3357 12.248 10.3066C12.316 10.2774 12.3889 10.2434 12.4667 10.2045L21.625 4.22533C21.7223 4.16699 21.7952 4.08921 21.8438 3.99199C21.8924 3.89477 21.9167 3.78783 21.9167 3.67116C21.9167 3.41838 21.8049 3.21908 21.5813 3.07324C21.3577 2.92741 21.1292 2.93227 20.8959 3.08783L12 8.77533L3.13337 3.08783C2.90004 2.93227 2.66671 2.92255 2.43337 3.05866C2.20004 3.19477 2.08337 3.38921 2.08337 3.64199C2.08337 3.75866 2.11254 3.87046 2.17087 3.97741C2.22921 4.08435 2.29726 4.16699 2.37504 4.22533L11.5334 10.2045C11.6112 10.2434 11.6841 10.2774 11.7521 10.3066C11.8202 10.3357 11.9028 10.3503 12 10.3503Z" fill="#ED9B1D"/>
</svg>
