<svg width="26" height="28" viewBox="0 0 26 28" fill="none" xmlns="http://www.w3.org/2000/svg">
<path d="M5.08225 0.508225L19.8208 9.02099L15.6279 13.2138L2.41407 0.127056C2.66818 0.127056 3.04935 0 3.30346 0C3.93874 0 4.57402 0.127056 5.08225 0.508225ZM0 24.6489V3.30346C0 2.28701 0.508225 1.39762 1.27056 0.762337L14.6115 14.1032L1.39762 27.3171C0.508225 26.6818 0 25.6653 0 24.6489ZM5.08225 27.5712C4.31991 27.9524 3.43052 28.0794 2.66818 27.9524L15.6279 15.1197L19.6937 19.1855L5.08225 27.5712ZM23.5054 16.8985L20.8372 18.4231L16.3902 14.1032L20.8372 9.65627L23.3783 11.1809C24.3948 11.8162 25.0301 12.8327 25.0301 14.1032C25.1571 15.1197 24.5218 16.2632 23.5054 16.8985Z" fill="#FFC23E"/>
</svg>
