<svg width="35" height="36" viewBox="0 0 35 36" fill="none" xmlns="http://www.w3.org/2000/svg">
<path d="M18.0933 35.7677H16.8646C16.1532 35.5761 15.5676 35.1743 15.033 34.6683C14.4985 34.1624 13.9184 33.6778 13.3739 33.1681C13.2838 33.0808 13.1756 33.0151 13.0574 32.976C12.9392 32.9369 12.8139 32.9253 12.6907 32.9421C11.5049 33.0407 10.3127 33.1411 9.12235 33.2211C7.45404 33.3309 6.18525 32.3784 5.78208 30.7275C5.54584 29.7611 5.31506 28.792 5.09615 27.8209C5.07142 27.6914 5.01839 27.5692 4.94102 27.4634C4.86365 27.3576 4.7639 27.271 4.6492 27.2099C3.69418 26.6518 2.76197 26.0435 1.79875 25.4957C0.872919 24.9683 0.248103 24.2289 0 23.1704V21.9874C0.395871 20.7289 0.955927 19.5375 1.43663 18.3125C1.48849 18.1924 1.51527 18.0625 1.51527 17.9312C1.51527 17.7999 1.48849 17.67 1.43663 17.5499C0.956839 16.3407 0.414116 15.1511 0.0027391 13.9113V12.6575C0.276382 11.5926 0.923996 10.8559 1.8635 10.3323C2.72183 9.85421 3.54733 9.31661 4.39289 8.81435C4.57101 8.7127 4.70224 8.54309 4.75775 8.3428C5.11166 7.20435 5.48745 6.07242 5.83224 4.93212C6.27919 3.46256 7.50603 2.54083 9.01745 2.62175C10.2881 2.69058 11.5559 2.80777 12.8238 2.92217C12.9176 2.9367 13.0134 2.92927 13.104 2.90042C13.1946 2.87157 13.2775 2.82208 13.3465 2.75569C13.9202 2.22647 14.5031 1.70747 15.0796 1.18568C15.2082 1.07035 15.3331 0.952222 15.4654 0.84154C16.6776 -0.169478 18.2748 -0.18157 19.4788 0.84154C20.2031 1.4582 20.8972 2.11206 21.606 2.74918C21.7154 2.84777 21.8167 2.95194 21.989 2.9352C23.1748 2.8366 24.3725 2.77801 25.5574 2.64221C27.3397 2.43852 28.7407 3.38629 29.1786 5.16464C29.4176 6.13101 29.6429 7.10111 29.8645 8.07213C29.8866 8.18475 29.9327 8.291 29.9998 8.3833C30.0668 8.47559 30.153 8.55164 30.2522 8.60601C31.2719 9.21709 32.2844 9.84025 33.2987 10.4662C34.8731 11.4298 35.3775 12.9859 34.677 14.7075C34.2857 15.672 33.8998 16.6384 33.5012 17.6001C33.4541 17.7047 33.4297 17.8184 33.4297 17.9335C33.4297 18.0486 33.4541 18.1624 33.5012 18.267C33.8998 19.2287 34.2875 20.1941 34.6752 21.1605C35.3729 22.8998 34.8749 24.4391 33.3015 25.4036C32.3072 26.0138 31.3148 26.6258 30.3124 27.222C30.1935 27.2867 30.0903 27.3778 30.0104 27.4886C29.9306 27.5993 29.876 27.7268 29.8508 27.8619C29.6155 28.9008 29.3856 29.9416 29.1029 30.9684C28.697 32.4435 27.3889 33.3476 25.9012 33.2323C24.6999 33.1393 23.4986 33.0462 22.2983 32.9458C22.1639 32.9276 22.0273 32.9405 21.8986 32.9837C21.7699 33.0268 21.6524 33.0991 21.5549 33.1951C21.0222 33.701 20.4548 34.1679 19.9221 34.6739C19.3894 35.1799 18.8057 35.578 18.0933 35.7677ZM6.24088 17.9461C6.3175 24.3489 11.2695 29.3919 17.4894 29.3863C23.7094 29.3807 28.6888 24.3228 28.7006 17.9591C28.7107 16.4531 28.4274 14.9601 27.8674 13.5665C27.3073 12.1729 26.4815 10.9066 25.4379 9.84091C24.3943 8.77521 23.1536 7.93133 21.7878 7.3582C20.422 6.78507 18.9582 6.49409 17.4812 6.50213C11.2513 6.4984 6.31385 11.5582 6.24088 17.9461Z" fill="#FFC23E"/>
<path d="M26.7224 17.9368C26.7241 19.8028 26.1825 21.6272 25.1664 23.179C24.1503 24.7308 22.7054 25.9402 21.0147 26.6539C19.3239 27.3677 17.4635 27.5537 15.669 27.1884C13.8745 26.8231 12.2268 25.9229 10.9344 24.6018C9.64211 23.2808 8.76338 21.5984 8.40956 19.7677C8.05573 17.937 8.24274 16.0404 8.94689 14.3182C9.65104 12.5959 10.8406 11.1255 12.365 10.0933C13.8894 9.06101 15.6799 8.51332 17.5098 8.51958C18.7215 8.51958 19.9214 8.76333 21.0406 9.23688C22.1598 9.71043 23.1764 10.4045 24.0322 11.2792C24.888 12.154 25.5661 13.1924 26.0277 14.3348C26.4894 15.4772 26.7254 16.7012 26.7224 17.9368ZM23.5774 14.8173C23.5773 14.601 23.5081 14.3907 23.3804 14.218C23.2527 14.0454 23.0734 13.9198 22.8695 13.8602C22.4189 13.7319 22.0805 13.9225 21.775 14.2388C20.1048 15.9483 18.4256 17.6494 16.7582 19.3636C16.5274 19.6017 16.386 19.6045 16.1553 19.3636C15.161 18.3275 14.1485 17.3053 13.1452 16.285C12.6636 15.7985 12.0761 15.7753 11.6639 16.2078C11.2516 16.6403 11.2899 17.216 11.7551 17.6959C13.0631 19.0365 14.3747 20.3734 15.6901 21.7065C16.1826 22.2069 16.7235 22.2051 17.2225 21.7158C17.5663 21.3782 17.9002 21.0285 18.2377 20.6844C19.871 19.0182 21.5047 17.3534 23.1386 15.6897C23.3749 15.4423 23.571 15.1819 23.5774 14.8173Z" fill="#FFC23E"/>
</svg>
