<svg width="34" height="28" viewBox="0 0 34 28" fill="none" xmlns="http://www.w3.org/2000/svg">
<path d="M34 3.31602C32.7222 3.87038 31.3708 4.23685 29.988 4.40402C31.4469 3.53247 32.5402 2.16135 33.065 0.54502C31.694 1.36113 30.1933 1.93613 28.628 2.24502C27.5817 1.11039 26.1884 0.355124 24.6667 0.0976679C23.1449 -0.159788 21.5807 0.0951298 20.2194 0.822442C18.8582 1.54975 17.7768 2.70832 17.1449 4.11644C16.513 5.52456 16.3664 7.10258 16.728 8.60302C13.956 8.46281 11.2446 7.74104 8.76971 6.48458C6.29488 5.22813 4.11204 3.4651 2.363 1.31002C1.74953 2.38131 1.42718 3.59452 1.428 4.82902C1.42582 5.97547 1.70717 7.10467 2.24698 8.11608C2.7868 9.12749 3.56833 9.98973 4.522 10.626C3.41356 10.5959 2.32881 10.2984 1.36 9.75902V9.84402C1.36831 11.4503 1.93119 13.0045 2.95344 14.2436C3.97568 15.4826 5.39454 16.3306 6.97 16.644C6.36353 16.8286 5.73389 16.9259 5.1 16.933C4.66121 16.9279 4.22352 16.8881 3.791 16.814C4.23965 18.1958 5.10786 19.4034 6.27483 20.2687C7.4418 21.134 8.84948 21.6141 10.302 21.642C7.84925 23.572 4.821 24.6253 1.7 24.634C1.13175 24.6359 0.563951 24.6018 0 24.532C3.18653 26.5895 6.89998 27.6816 10.693 27.677C13.3105 27.7042 15.9071 27.2096 18.3313 26.222C20.7555 25.2344 22.9585 23.7736 24.8118 21.9251C26.6652 20.0765 28.1315 17.8772 29.1253 15.4556C30.1192 13.0339 30.6205 10.4386 30.6 7.82102C30.6 7.53202 30.6 7.22602 30.6 6.92002C31.934 5.9252 33.0845 4.70564 34 3.31602Z" fill="#FFC23E"/>
</svg>
