<svg width="137" height="27" viewBox="0 0 137 27" fill="none" xmlns="http://www.w3.org/2000/svg">
<path d="M8.17383 26.0098H13.4824V5.02148H20.8301V0.644531H0.84375V5.02148H8.17383V26.0098ZM33.8456 26.0098H39.1542V16.8164H43.4081L48.1366 26.0098H54.1484L48.8046 16.0254C51.6171 14.918 53.3925 12.1406 53.3925 8.80078V8.76562C53.3925 3.66797 50.0175 0.644531 44.3222 0.644531H33.8456V26.0098ZM39.1542 12.791V4.79297H43.6718C46.2909 4.79297 47.9609 6.33984 47.9609 8.76562V8.80078C47.9609 11.2969 46.3788 12.791 43.7421 12.791H39.1542ZM66.9881 26.0098H72.2967V0.644531H66.9881V26.0098ZM86.5955 26.0098H97.8279C103.242 26.0098 106.599 23.2324 106.599 18.7852V18.75C106.599 15.4277 104.051 12.9316 100.517 12.668V12.5625C103.312 12.1934 105.422 9.82031 105.422 7.04297V7.00781C105.422 3.10547 102.416 0.644531 97.6345 0.644531H86.5955V26.0098ZM96.2634 4.58203C98.742 4.58203 100.201 5.74219 100.201 7.76367V7.79883C100.201 9.99609 98.6013 11.2441 95.613 11.2441H91.9041V4.58203H96.2634ZM96.2459 14.8477C99.4978 14.8477 101.185 16.0957 101.185 18.416V18.4512C101.185 20.8066 99.5154 22.0547 96.4744 22.0547H91.9041V14.8477H96.2459ZM119.703 26.0098H136.507V21.6328H125.011V15.252H135.857V11.1035H125.011V5.02148H136.507V0.644531H119.703V26.0098Z" fill="white"/>
</svg>
