<svg width="68" height="13" viewBox="0 0 68 13" fill="none" xmlns="http://www.w3.org/2000/svg">
<path d="M4.38757 13V2.254H0.715568V0.399999H10.3816V2.254H6.69157V13H4.38757ZM17.1283 13V0.399999H21.7543C22.7623 0.399999 23.5903 0.573999 24.2383 0.922C24.8983 1.258 25.3903 1.72 25.7143 2.308C26.0383 2.884 26.2003 3.526 26.2003 4.234C26.2003 5.002 25.9963 5.704 25.5883 6.34C25.1923 6.976 24.5683 7.438 23.7163 7.726L26.3263 13H23.6803L21.3403 8.032H19.4323V13H17.1283ZM19.4323 6.34H21.6103C22.3783 6.34 22.9423 6.154 23.3023 5.782C23.6623 5.41 23.8423 4.918 23.8423 4.306C23.8423 3.706 23.6623 3.226 23.3023 2.866C22.9543 2.506 22.3843 2.326 21.5923 2.326H19.4323V6.34ZM33.3832 13V0.399999H35.6872V13H33.3832ZM43.1693 13V0.399999H48.2273C49.5353 0.399999 50.5313 0.705999 51.2153 1.318C51.9113 1.918 52.2593 2.692 52.2593 3.64C52.2593 4.432 52.0433 5.068 51.6113 5.548C51.1913 6.016 50.6753 6.334 50.0633 6.502C50.7833 6.646 51.3773 7.006 51.8453 7.582C52.3133 8.146 52.5473 8.806 52.5473 9.562C52.5473 10.558 52.1873 11.38 51.4673 12.028C50.7473 12.676 49.7273 13 48.4073 13H43.1693ZM45.4733 5.692H47.8853C48.5333 5.692 49.0313 5.542 49.3793 5.242C49.7273 4.942 49.9013 4.516 49.9013 3.964C49.9013 3.436 49.7273 3.022 49.3793 2.722C49.0433 2.41 48.5333 2.254 47.8493 2.254H45.4733V5.692ZM45.4733 11.128H48.0473C48.7313 11.128 49.2593 10.972 49.6313 10.66C50.0153 10.336 50.2073 9.886 50.2073 9.31C50.2073 8.722 50.0093 8.26 49.6133 7.924C49.2173 7.588 48.6833 7.42 48.0113 7.42H45.4733V11.128ZM59.5647 13V0.399999H67.7907V2.254H61.8687V5.71H67.2507V7.51H61.8687V11.146H67.7907V13H59.5647Z" fill="white"/>
</svg>
